<svg width="44" height="44" viewBox="0 0 44 44" fill="none" xmlns="http://www.w3.org/2000/svg">
<rect width="20" height="20" fill="#FF6600"/>
<rect width="20" height="20" fill="#FF6600"/>
<rect width="20" height="20" fill="#FF6600"/>
<rect width="20" height="20" fill="#FF6600"/>
<rect width="20" height="20" fill="#FF6600"/>
<rect x="24" width="20" height="20" fill="#FF6600"/>
<rect x="24" width="20" height="20" fill="#FF6600"/>
<rect x="24" width="20" height="20" fill="#FF6600"/>
<rect x="24" width="20" height="20" fill="#FF6600"/>
<rect x="24" width="20" height="20" fill="#FF8534"/>
<rect x="24" y="24" width="20" height="20" fill="#FF6600"/>
<rect x="24" y="24" width="20" height="20" fill="#FF6600"/>
<rect x="24" y="24" width="20" height="20" fill="#FF6600"/>
<rect x="24" y="24" width="20" height="20" fill="#FF6600"/>
<rect x="24" y="24" width="20" height="20" fill="#FFB685"/>
<rect y="24" width="20" height="20" fill="#FF6600"/>
<rect y="24" width="20" height="20" fill="#FF6600"/>
<rect y="24" width="20" height="20" fill="#FF6600"/>
<rect y="24" width="20" height="20" fill="#FF6600"/>
<rect y="24" width="20" height="20" fill="#FFBD91"/>
</svg>
